<svg xmlns="http://www.w3.org/2000/svg" viewBox="0 0 800 450" width="800" height="450" opacity="0.25">
  <defs>
    <radialGradient id="netGlow" cx="50%" cy="50%" r="50%">
      <stop offset="0%" stop-color="#00D2FF" stop-opacity="0.3"/>
      <stop offset="100%" stop-color="#0A0E1A" stop-opacity="0"/>
    </radialGradient>
  </defs>
  <rect width="800" height="450" fill="url(#netGlow)"/>
  <g fill="#4facfe" opacity="0.6">
    <!-- North America -->
    <circle cx="180" cy="120" r="3"/><circle cx="210" cy="110" r="4"/><circle cx="160" cy="150" r="4"/>
    <circle cx="230" cy="160" r="4"/><circle cx="260" cy="140" r="5"/><circle cx="190" cy="180" r="3"/>
    <circle cx="220" cy="200" r="3"/><circle cx="250" cy="190" r="4"/>
    <!-- South America -->
    <circle cx="280" cy="280" r="3"/><circle cx="300" cy="310" r="4"/><circle cx="310" cy="350" r="3"/>
    <circle cx="290" cy="390" r="2"/>
    <!-- Europe -->
    <circle cx="430" cy="110" r="4"/><circle cx="450" cy="125" r="5"/><circle cx="420" cy="140" r="4"/>
    <circle cx="460" cy="145" r="4"/><circle cx="440" cy="160" r="4"/><circle cx="480" cy="130" r="3"/>
    <!-- Africa -->
    <circle cx="450" cy="220" r="4"/><circle cx="480" cy="240" r="5"/><circle cx="440" cy="270" r="3"/>
    <circle cx="510" cy="280" r="6"/><circle cx="470" cy="320" r="4"/><circle cx="480" cy="360" r="3"/>
    <!-- Asia -->
    <circle cx="560" cy="130" r="4"/><circle cx="610" cy="140" r="5"/><circle cx="660" cy="160" r="5"/>
    <circle cx="580" cy="180" r="4"/><circle cx="630" cy="200" r="4"/><circle cx="690" cy="170" r="5"/>
    <circle cx="600" cy="240" r="3"/><circle cx="640" cy="270" r="4"/>
    <!-- Australia -->
    <circle cx="680" cy="330" r="4"/><circle cx="710" cy="340" r="4"/><circle cx="720" cy="370" r="3"/>
  </g>
  <!-- Connection arcs -->
  <g stroke="#00d2ff" stroke-width="1" fill="none" opacity="0.3" stroke-dasharray="4 4">
    <path d="M260 140 Q350 90 450 125"/>
    <path d="M450 125 Q510 180 510 280"/>
    <path d="M450 125 Q540 100 660 160"/>
    <path d="M660 160 Q690 220 640 270"/>
    <path d="M510 280 Q570 300 640 270"/>
    <path d="M260 140 Q250 220 280 280"/>
    <path d="M640 270 Q670 290 710 340"/>
  </g>
</svg>
